<svg id="Layer_1" data-name="Layer 1" xmlns="http://www.w3.org/2000/svg" xmlns:xlink="http://www.w3.org/1999/xlink" viewBox="0 0 217 65"><defs><style>.cls-1{fill:#231f20;}.cls-2{fill:none;}.cls-3{fill:#fff;}.cls-4{fill:url(#linear-gradient);}.cls-5{fill:url(#linear-gradient-2);}.cls-6{fill:url(#linear-gradient-3);}.cls-7{fill:url(#linear-gradient-4);}.cls-8{fill:url(#linear-gradient-5);}.cls-9{fill:url(#linear-gradient-6);}.cls-10{fill:url(#linear-gradient-7);}.cls-11{fill:url(#linear-gradient-8);}.cls-12{fill:url(#linear-gradient-9);}.cls-13{fill:url(#linear-gradient-10);}.cls-14{fill:url(#linear-gradient-11);}.cls-15{fill:url(#linear-gradient-12);}.cls-16{fill:url(#linear-gradient-13);}.cls-17{fill:url(#linear-gradient-14);}.cls-18{fill:url(#linear-gradient-15);}.cls-19{fill:url(#linear-gradient-16);}.cls-20{fill:#1b6634;}.cls-21{fill:#5d7ab4;}</style><linearGradient id="linear-gradient" x1="37.03" y1="52.05" x2="37.03" y2="24.76" gradientUnits="userSpaceOnUse"><stop offset="0" stop-color="#fff"/><stop offset="1" stop-color="#1b6634"/></linearGradient><linearGradient id="linear-gradient-2" x1="34.12" y1="52.05" x2="34.12" y2="24.76" xlink:href="#linear-gradient"/><linearGradient id="linear-gradient-3" x1="16.65" y1="52.05" x2="16.65" y2="24.76" xlink:href="#linear-gradient"/><linearGradient id="linear-gradient-4" x1="24.91" y1="52.05" x2="24.91" y2="24.76" xlink:href="#linear-gradient"/><linearGradient id="linear-gradient-5" x1="23.43" y1="52.05" x2="23.43" y2="24.76" xlink:href="#linear-gradient"/><linearGradient id="linear-gradient-6" x1="39.91" y1="52.05" x2="39.91" y2="24.76" xlink:href="#linear-gradient"/><linearGradient id="linear-gradient-7" x1="42.75" y1="52.05" x2="42.75" y2="24.76" xlink:href="#linear-gradient"/><linearGradient id="linear-gradient-8" x1="30.76" y1="52.14" x2="30.76" y2="24.62" xlink:href="#linear-gradient"/><linearGradient id="linear-gradient-9" x1="17.48" y1="52.05" x2="17.48" y2="24.76" xlink:href="#linear-gradient"/><linearGradient id="linear-gradient-10" x1="27.59" y1="52.19" x2="27.59" y2="23.11" gradientUnits="userSpaceOnUse"><stop offset="0" stop-color="#fff"/><stop offset="1" stop-color="#166634"/></linearGradient><linearGradient id="linear-gradient-11" x1="31.75" y1="52.05" x2="31.75" y2="24.76" xlink:href="#linear-gradient-10"/><linearGradient id="linear-gradient-12" x1="65.1" y1="48.42" x2="65.1" y2="16.37" xlink:href="#linear-gradient"/><linearGradient id="linear-gradient-13" x1="70.31" y1="48.42" x2="70.31" y2="16.37" xlink:href="#linear-gradient"/><linearGradient id="linear-gradient-14" x1="83.98" y1="48.42" x2="83.98" y2="16.37" xlink:href="#linear-gradient"/><linearGradient id="linear-gradient-15" x1="90.37" y1="48.76" x2="90.37" y2="15.34" xlink:href="#linear-gradient"/><linearGradient id="linear-gradient-16" x1="77.35" y1="48.45" x2="77.35" y2="16.24" xlink:href="#linear-gradient"/></defs><path class="cls-1" d="M112.13,20l-.23-1.9h-3.48l-1,1.9h-.66l4.16-7.86h.82l1,7.86Zm-.89-7.24h0l-2.55,4.86h3.18Z"/><path class="cls-1" d="M117.54,15.27a4.94,4.94,0,0,0-1.27-.14c-.63,0-1.47.19-1.47.89a.75.75,0,0,0,.44.64l1.2.77c.46.3.84.58.84,1.07,0,1.31-1.25,1.6-2.42,1.6a9.65,9.65,0,0,1-1.24-.1l.15-.54a6.06,6.06,0,0,0,1.2.15c.81,0,1.71-.13,1.71-1.05,0-.34-.23-.48-.55-.68l-1-.67c-.36-.22-.88-.51-.88-1.1a1.26,1.26,0,0,1,.52-1,2.6,2.6,0,0,1,1.61-.4,8.75,8.75,0,0,1,1.35.1Z"/><path class="cls-1" d="M121.89,15.27a4.94,4.94,0,0,0-1.27-.14c-.63,0-1.47.19-1.47.89a.75.75,0,0,0,.44.64l1.2.77c.47.3.84.58.84,1.07,0,1.31-1.25,1.6-2.42,1.6A9.65,9.65,0,0,1,118,20l.15-.54a6.16,6.16,0,0,0,1.2.15c.81,0,1.71-.13,1.71-1.05,0-.34-.23-.48-.55-.68l-1-.67c-.35-.22-.88-.51-.88-1.1a1.25,1.25,0,0,1,.53-1,2.56,2.56,0,0,1,1.6-.4,8.75,8.75,0,0,1,1.35.1Z"/><path class="cls-1" d="M124.61,20.12c-1.23,0-2-.53-2-1.81,0-1.86.78-3.65,3.07-3.65,1.25,0,2,.54,2,1.81C127.69,18.33,126.92,20.12,124.61,20.12Zm1-5c-1.9,0-2.43,1.75-2.43,3.19,0,.81.35,1.36,1.52,1.36,1.89,0,2.42-1.76,2.42-3.2C127.13,15.66,126.78,15.12,125.62,15.12Z"/><path class="cls-1" d="M132.89,15.28a5.62,5.62,0,0,0-1.28-.14c-1.89,0-2.45,1.63-2.45,3.12,0,.87.38,1.36,1.56,1.36a4.88,4.88,0,0,0,1.35-.24l-.07.5a6.3,6.3,0,0,1-1.4.22c-1.25,0-2-.55-2-1.85,0-1.88.82-3.59,3.11-3.59a9.69,9.69,0,0,1,1.34.11Z"/><path class="cls-1" d="M133.56,20H133l1-5.23h.53Zm1.4-6.54h-.75l.15-.74h.75Z"/><path class="cls-1" d="M139.25,20h-.43l0-.46h0a2.75,2.75,0,0,1-1.64.56,1.81,1.81,0,0,1-1.88-1.92c0-2.19,1.12-3.52,2.93-3.52a7,7,0,0,1,2,.3Zm-1-4.86c-1.46,0-2.33,1.13-2.33,3a1.34,1.34,0,0,0,1.44,1.51,2.42,2.42,0,0,0,1.57-.67l.71-3.6A4.37,4.37,0,0,0,138.24,15.14Z"/><path class="cls-1" d="M144.33,15.23h-1.72l-.78,3.92c-.06.28-.11.48.32.48a6.49,6.49,0,0,0,1-.11l-.06.48a9.37,9.37,0,0,1-1.18.1c-.57,0-.77-.38-.64-1l.77-3.89h-.89l.08-.35.9-.12.31-1.56H143l-.31,1.57h1.72Z"/><path class="cls-1" d="M145,20h-.54l1-5.23H146Zm1.39-6.54h-.74l.14-.74h.75Z"/><path class="cls-1" d="M148.7,20.12c-1.24,0-2-.53-2-1.81,0-1.86.78-3.65,3.07-3.65,1.25,0,2,.54,2,1.81C151.78,18.33,151,20.12,148.7,20.12Zm1-5c-1.89,0-2.42,1.75-2.42,3.19,0,.81.34,1.36,1.52,1.36,1.88,0,2.41-1.76,2.41-3.2C151.21,15.66,150.87,15.12,149.7,15.12Z"/><path class="cls-1" d="M156.76,20h-.53l.79-4c.15-.78-.53-.86-1-.86a5.16,5.16,0,0,0-2.22.61L153,20h-.54l1-5.21h.43l0,.43h0a5.7,5.7,0,0,1,2.34-.54,1.16,1.16,0,0,1,1.27,1.39Z"/><path class="cls-1" d="M163.37,20.12c-1.24,0-2-.53-2-1.81,0-1.86.79-3.65,3.08-3.65,1.25,0,2,.54,2,1.81C166.44,18.33,165.67,20.12,163.37,20.12Zm1-5c-1.9,0-2.42,1.75-2.42,3.19,0,.81.34,1.36,1.52,1.36,1.88,0,2.41-1.76,2.41-3.2C165.88,15.66,165.54,15.12,164.37,15.12Z"/><path class="cls-1" d="M171.64,12.29a5.69,5.69,0,0,0-1.24-.16c-.85,0-1.05.62-1.15,1.14l-.3,1.5h1.87l-.1.45h-1.85l-1.48,7.42h-.54l1.48-7.41h-.88l.07-.35.91-.13.32-1.64a1.61,1.61,0,0,1,1.72-1.45,5.58,5.58,0,0,1,1.32.15Z"/><path class="cls-1" d="M114.63,38.34a3,3,0,0,1-2.22.64h-3.89l0-11.13h4a2.71,2.71,0,0,1,2,.67,3.26,3.26,0,0,1,.72,2.38,2.58,2.58,0,0,1-1.19,2.26v0c.86.26,1.39,1.62,1.39,2.6A3.51,3.51,0,0,1,114.63,38.34Zm-2.38-8.78H110.5V32.4h1.59c1,0,1.19-.47,1.19-1.45S112.94,29.58,112.25,29.56Zm0,4.6H110.5v3.08h1.79c.83,0,1.15-.42,1.15-1.45S113.29,34.16,112.29,34.16Z"/><path class="cls-1" d="M121.13,33.13a3.12,3.12,0,0,0-1.11-.2,1.57,1.57,0,0,0-1.15.7V39H117V31.24h1.55l.14.76h0a1.61,1.61,0,0,1,1.48-.89,3.49,3.49,0,0,1,1.06.13Z"/><path class="cls-1" d="M122.23,29.89V27.82h2.19v2.07Zm.16,9.08V31.24h1.9V39Z"/><path class="cls-1" d="M128.61,32.93l0,4.09c0,.3.1.4.29.4a7.16,7.16,0,0,0,1.41-.23l.09,1.73a13.31,13.31,0,0,1-2.08.19,1.41,1.41,0,0,1-1.59-1.61V32.93h-1.16V31.45l1.16-.16V29h1.9v2.22h2.11v1.69Z"/><path class="cls-1" d="M131.84,29.89V27.82H134v2.07ZM132,39V31.24h1.9V39Z"/><path class="cls-1" d="M137.84,39.11a16.09,16.09,0,0,1-2.26-.16l.11-1.68a16.17,16.17,0,0,0,2.15.23c.39,0,1,0,1-.44s-.18-.51-.47-.69l-1.71-1.06a2.44,2.44,0,0,1-1.4-2.2c0-1.53,1.53-2,2.84-2a12.73,12.73,0,0,1,2.11.14l-.13,1.69a14.79,14.79,0,0,0-2-.2,1.77,1.77,0,0,0-.75.08.35.35,0,0,0-.2.33.66.66,0,0,0,.39.63l1.52,1a2.6,2.6,0,0,1,1.64,2.35C140.74,38.6,139.23,39.11,137.84,39.11Z"/><path class="cls-1" d="M148.21,39h-1.9V33.32a.59.59,0,0,0-.63-.59,3.12,3.12,0,0,0-1.78.5V39H142V27.35h1.92v4.18h0a3.74,3.74,0,0,1,1.86-.42c1.05,0,2.4.45,2.4,2Z"/><path class="cls-1" d="M157.59,39.11c-3.4,0-4.59-1.77-4.59-5.71s1.19-5.69,4.59-5.69a13.57,13.57,0,0,1,2.62.24l-.15,1.86a12.28,12.28,0,0,0-2.48-.29c-1.76,0-2.52.62-2.52,3.88s.76,3.91,2.52,3.91a13.26,13.26,0,0,0,2.48-.31l.15,1.87A14.41,14.41,0,0,1,157.59,39.11Z"/><path class="cls-1" d="M164.64,39.11c-2.4,0-3.48-1.27-3.48-4s1.06-4,3.48-4,3.49,1.24,3.49,4S167.06,39.11,164.64,39.11Zm0-6.34c-1,0-1.55.37-1.55,2.33s.55,2.33,1.55,2.33,1.55-.37,1.55-2.32S165.64,32.77,164.64,32.77Z"/><path class="cls-1" d="M169.56,39V27.35h1.89V39Z"/><path class="cls-1" d="M177.8,39l-.1-.38h0a4.33,4.33,0,0,1-2.12.5c-1,0-2.41-.47-2.41-2V31.26H175V36.9a.6.6,0,0,0,.64.6,3,3,0,0,0,1.76-.5V31.26h1.9V39Z"/><path class="cls-1" d="M190.88,39H189V33.32a.56.56,0,0,0-.6-.59,2.2,2.2,0,0,0-1.47.5V39H185V33.32a.54.54,0,0,0-.58-.59,2.18,2.18,0,0,0-1.48.5V39H181V31.24h1.55l.11.4h0a3.33,3.33,0,0,1,1.82-.54,2.38,2.38,0,0,1,1.82.58h0a3.4,3.4,0,0,1,2.13-.58,2.07,2.07,0,0,1,2.35,2Z"/><path class="cls-1" d="M196.09,39.11a3.93,3.93,0,0,1-1.86-.48h0l-.08.35h-1.55V27.35h1.92v4.1h0a3.37,3.37,0,0,1,1.58-.35c2.29,0,2.93,1.4,2.93,3.93C199,37.1,198.59,39.11,196.09,39.11ZM196,32.76a2.32,2.32,0,0,0-1.52.45c0,2.13,0,1.85,0,3.76a2.63,2.63,0,0,0,1.54.48c1.17,0,1.12-1.71,1.12-2.42C197.14,33.08,196.78,32.76,196,32.76Z"/><path class="cls-1" d="M200.35,29.89V27.82h2.2v2.07Zm.17,9.08V31.24h1.9V39Z"/><path class="cls-1" d="M208.15,39l-.11-.4,0,0a3.8,3.8,0,0,1-2.08.53,2.09,2.09,0,0,1-2.19-2.23,2.53,2.53,0,0,1,.63-1.88c.77-.73,2.11-.79,3.42-.83v-.8c0-.41-.23-.66-1-.66a8.12,8.12,0,0,0-2.29.43l-.12-1.74a9.64,9.64,0,0,1,2.53-.32c1.47,0,2.79.46,2.79,2V39Zm-2.24-3a.94.94,0,0,0-.25.71c0,.55.21.86.78.86a2,2,0,0,0,1.32-.4l0-1.55A3.48,3.48,0,0,0,205.91,35.93Z"/><path class="cls-1" d="M108.5,52V40.85h2v9.34h4.31V52Z"/><path class="cls-1" d="M119.73,52l-.12-.4,0,0a3.8,3.8,0,0,1-2.08.53,2.09,2.09,0,0,1-2.19-2.23,2.49,2.49,0,0,1,.63-1.88c.77-.73,2.11-.79,3.42-.83v-.8c0-.41-.23-.66-1-.66a8.18,8.18,0,0,0-2.29.43l-.11-1.74a9.64,9.64,0,0,1,2.53-.32c1.47,0,2.79.46,2.79,2V52Zm-2.24-3a.9.9,0,0,0-.25.71c0,.55.21.86.78.86a2,2,0,0,0,1.32-.4l0-1.55A3.48,3.48,0,0,0,117.49,48.93Z"/><path class="cls-1" d="M128.35,52h-1.9V46.32a.59.59,0,0,0-.63-.59,3.06,3.06,0,0,0-1.77.5V52h-1.91V44.24h1.55l.1.39,0,0a4.32,4.32,0,0,1,2.11-.5c1,0,2.4.45,2.4,2Z"/><path class="cls-1" d="M134.22,52l-.11-.38h0a3.77,3.77,0,0,1-2,.51c-2.1,0-2.78-1.55-2.78-4.08,0-2.71.84-3.93,3.28-3.93a4.84,4.84,0,0,1,1.25.17h0V40.35h1.9V52Zm-.37-6a3,3,0,0,0-1.27-.21c-1,0-1.34.28-1.34,2.29s.4,2.42,1.18,2.42a2.28,2.28,0,0,0,1.43-.47Z"/><path class="cls-1" d="M143.33,52.11a24.57,24.57,0,0,1-2.82-.14l.13-1.87a21,21,0,0,0,2.63.21,2.71,2.71,0,0,0,1.45-.29.84.84,0,0,0,.34-.7c0-.58-.41-.93-.86-1.27l-2.34-1.78a3.59,3.59,0,0,1-1.55-3c0-1.85,1.57-2.58,3.5-2.58a23.13,23.13,0,0,1,2.7.15l-.12,1.85a19.3,19.3,0,0,0-2.61-.21c-.95,0-1.4.33-1.4.92a1.4,1.4,0,0,0,.61,1.15l2.87,2.3a3,3,0,0,1,1.24,2.57C147.1,51.4,145.35,52.11,143.33,52.11Z"/><path class="cls-1" d="M153,52l-.1-.38h0a4.29,4.29,0,0,1-2.11.5c-1,0-2.42-.47-2.42-2V44.26h1.9V49.9a.6.6,0,0,0,.64.6,3,3,0,0,0,1.76-.5V44.26h1.91V52Z"/><path class="cls-1" d="M160.37,46.13a3.12,3.12,0,0,0-1.11-.2,1.54,1.54,0,0,0-1.14.7V52h-1.91V44.24h1.55l.15.76h0a1.63,1.63,0,0,1,1.48-.89,3.58,3.58,0,0,1,1.07.13Z"/><path class="cls-1" d="M165.57,52.06h-2.2l-2.46-7.8H163l1.19,4.5.34,1.5h0l.34-1.52L166,44.26h2Z"/><path class="cls-1" d="M174.68,48.48h-4.23c0,1.49.6,2,1.53,2a9.39,9.39,0,0,0,2.34-.34l.12,1.71a10.77,10.77,0,0,1-2.46.29c-2.4,0-3.48-1.22-3.48-4s.89-4,3.34-4c2.29,0,2.84,1.35,2.84,3.32Zm-2.91-2.79c-.88,0-1.16.39-1.25,1.45h2.32C172.82,46.42,172.76,45.69,171.77,45.69Z"/><path class="cls-1" d="M179.17,53.1c-.64,2-1.35,2.67-2.77,2.67a10.61,10.61,0,0,1-1.61-.16l.13-1.74a9,9,0,0,0,1.25.19c.92,0,1.1-.82,1.34-1.48l.07-.19-2.73-8.13h2.07l1.21,4.34.32,1.5h.05l.32-1.52L180,44.26h2Z"/><path class="cls-1" d="M185.12,52.11c-2.4,0-3.48-1.27-3.48-4s1.07-4,3.48-4,3.49,1.24,3.49,4S187.54,52.11,185.12,52.11Zm0-6.34c-1,0-1.54.37-1.54,2.33s.54,2.33,1.54,2.33,1.55-.37,1.55-2.32S186.12,45.77,185.12,45.77Z"/><path class="cls-1" d="M193.25,46.13a3.12,3.12,0,0,0-1.11-.2,1.57,1.57,0,0,0-1.15.7V52h-1.9V44.24h1.55l.14.76h0a1.61,1.61,0,0,1,1.48-.89,3.52,3.52,0,0,1,1.06.13Z"/><path class="cls-1" d="M196.49,52.11a16.19,16.19,0,0,1-2.26-.16l.12-1.68a15.88,15.88,0,0,0,2.14.23c.39,0,1,0,1-.44s-.17-.51-.46-.69l-1.71-1.06a2.43,2.43,0,0,1-1.41-2.2c0-1.53,1.53-2,2.84-2a12.67,12.67,0,0,1,2.11.14l-.13,1.69a14.67,14.67,0,0,0-2-.2,1.8,1.8,0,0,0-.76.08.36.36,0,0,0-.19.33.65.65,0,0,0,.38.63l1.52,1a2.6,2.6,0,0,1,1.64,2.35C199.39,51.6,197.88,52.11,196.49,52.11Z"/><path class="cls-2" d="M57.92,47.38l-1.38-.45Z"/><path class="cls-2" d="M57.64,49h0c-.87-.25-2.2-.77-3.38-1.13C55.46,48.19,56.77,48.7,57.64,49Z"/><path class="cls-2" d="M49.62,49.43l-.83-.3Z"/><path class="cls-2" d="M57.16,46.76l5.34-1.44Z"/><path class="cls-2" d="M74.71,44.31h0Z"/><path class="cls-3" d="M37.5,43.29,36.56,43l.94.25Z"/><path class="cls-4" d="M37.5,43.29,36.56,43l.94.25Z"/><path class="cls-3" d="M34.58,45l1.68-1.86L32,44.31l3,.78Z"/><path class="cls-5" d="M34.58,45l1.68-1.86L32,44.31l3,.78Z"/><polygon class="cls-6" points="17.83 38.12 15.47 40.46 17.83 38.12 17.83 38.12"/><path class="cls-3" d="M32.45,43l1.9-.49c-7.41-2-14.11-3.71-16.52-4.34l-2.36,2.34c3.53.75,8.64,1.89,14.27,3.28C30.74,43.44,31.66,43.17,32.45,43Z"/><path class="cls-7" d="M32.45,43l1.9-.49c-7.41-2-14.11-3.71-16.52-4.34l-2.36,2.34c3.53.75,8.64,1.89,14.27,3.28C30.74,43.44,31.66,43.17,32.45,43Z"/><path class="cls-8" d="M31.29,48.62l2.28-2.51L29.67,45c-5,1.45-10.89,3.19-16.37,4.84,1.67.33,3.43.67,4.92.91s3.49.51,5.3.73c3-1.08,5.86-2.13,8.46-3.06Z"/><path class="cls-3" d="M40.49,40l-1.16-.26,1.16.26Z"/><path class="cls-9" d="M40.49,40l-1.16-.26,1.16.26Z"/><path class="cls-3" d="M43.36,36.87l-1.22-.24,1.22.24Z"/><path class="cls-10" d="M43.36,36.87l-1.22-.24,1.22.24Z"/><path class="cls-11" d="M37.55,41.7l1.76-2c-9.23-2.13-17.48-4-17.48-4S30,37.1,40,39.06h0l2.19-2.42C33.4,34.9,26,33.48,26,33.48s7.33,1.13,16.58,2.7h0l1-1.11.08-.1L30.45,25.65,17.9,38.05h0c2.66.48,10.22,1.87,18.93,3.81Z"/><path class="cls-12" d="M27.66,44.38l-12.5-3.62L7.29,48.54s2.08.46,4.66,1C17.41,47.68,23.16,45.78,27.66,44.38Z"/><path class="cls-13" d="M30,50l-4.85,1.58c1.23.14,2.33.26,3.1.33l.11-.11Z"/><path class="cls-3" d="M31.89,49.43l-.28.09.28-.09Z"/><path class="cls-14" d="M31.89,49.43l-.28.09.28-.09Z"/><path class="cls-3" d="M64.52,37.13h0l1.17-.22Z"/><path class="cls-15" d="M64.52,37.13h0l1.17-.22Z"/><path class="cls-3" d="M68.91,39.61h0L71.7,39Z"/><path class="cls-16" d="M68.91,39.61h0L71.7,39Z"/><path class="cls-3" d="M77.43,43.37c4.13-.85,9.16-1.83,15.46-3.06L91,37.83c-1.27.33-8.06,2.09-15.93,4.16l1.13,1Z"/><path class="cls-17" d="M77.43,43.37c4.13-.85,9.16-1.83,15.46-3.06L91,37.83c-1.27.33-8.06,2.09-15.93,4.16l1.13,1Z"/><path class="cls-18" d="M79.65,44.05c2.07.64,4.51,1.47,7,2.27,1.71.38,4.3,1,6.25,1.59,2.89.89,8.23,3.05,8.23,3.05l-8-10.41-.1-.14C90.44,41.09,85.38,42.45,79.65,44.05Z"/><path class="cls-19" d="M68.34,35.93c8.28-1.38,14.51-2.33,14.51-2.33s-6.24,1.18-14.09,2.71l2.3,2.06-.06,0c9.18-1.77,16.34-3,16.34-3S80.21,37,71.71,39l2.4,2.15c8.59-1.84,15.55-3.07,16.87-3.3L75.16,17.26,63.71,31.75l.09.08Z"/><path class="cls-20" d="M48,44.54c2,.51,3.9,1,5.79,1.58,1.87-.54,3.8-1.07,5.75-1.57-1.64-.42-3.6-.9-5.78-1.42C51.59,43.65,49.62,44.13,48,44.54Z"/><polygon class="cls-2" points="63.31 45.62 63.31 45.62 66.03 46.6 63.31 45.62"/><path class="cls-2" d="M74.71,44.31l1-.23-4.19-1.16-6.82,1.81c1,.27,3.11.93,4,1.21,1.87-.46,3.61-1.07,6-1.62Z"/><path class="cls-2" d="M60.86,40.42l-6.34-1.31-7.16,1.45c2.15.46,4.31.93,6.42,1.41C56.11,41.44,58.49,40.92,60.86,40.42Z"/><path class="cls-2" d="M57.92,47.38l-1.38-.45Z"/><path class="cls-2" d="M62.45,45.33l-5.29,1.43,5.29-1.43Z"/><path class="cls-2" d="M51.33,42.55c-2-.48-4.16-1-6.33-1.49-1.8.38-3.36.72-4.58,1l-1.31.32c2.17.49,4.39,1,6.6,1.57C47.49,43.48,49.38,43,51.33,42.55Z"/><path class="cls-2" d="M37.5,43.29h0L36.56,43l-.3.08L32,44.31l3,.78c1.2.32,2.4.63,3.61,1l.13-.05c1.26-.42,2.66-.85,4.17-1.28Z"/><path class="cls-2" d="M75.06,42h0l-1.3.34,1.14.31,1.29.36h0l1.24.37c4.13-.85,9.16-1.83,15.46-3.06L91,37.83C89.72,38.16,82.93,39.92,75.06,42Z"/><path class="cls-2" d="M63.21,40.92c-2.4.55-4.76,1.1-7,1.63,1.95.46,3.84.93,5.64,1.4,2.39-.6,4.79-1.16,7.13-1.7l-2.08-.51C65.9,41.5,64.64,41.22,63.21,40.92Z"/><path class="cls-2" d="M48,44.54c2,.51,3.9,1,5.79,1.58,1.87-.54,3.8-1.07,5.75-1.57-1.64-.42-3.6-.9-5.78-1.42C51.59,43.65,49.62,44.13,48,44.54Z"/><path class="cls-2" d="M40.67,46.64c2,.57,4,1.16,5.9,1.77,1.42-.5,2.93-1,4.5-1.47l-6-1.62C43.85,45.67,42.35,46.12,40.67,46.64Z"/><path class="cls-3" d="M93.08,40.55l-.1-.14-.1-.13L91,37.89,91,37.82c-1.32.23-8.28,1.46-16.87,3.3h0l-2.78.61c-1.79-.43-3.8-.87-5.93-1.32l3.51-.8h0L71.7,39h0c8.5-1.94,15.63-3.53,15.63-3.53s-7.16,1.18-16.34,3l-1.73.33-.22,0c-1.92.38-3.91.77-5.92,1.19-2.09-.42-4.27-.85-6.49-1.26l7.88-1.56h0l1.17-.22.29-.06,2.73-.53h.05c7.85-1.53,14.09-2.71,14.09-2.71s-6.23.95-14.51,2.33h0l-3.19.54-.13,0c-3.33.56-6.88,1.18-10.41,1.82-4.09-.76-8.22-1.48-12-2.13C33.33,34.61,26,33.48,26,33.48s7.4,1.42,16.12,3.15h0l1.22.24h0l9.12,1.83c-2.51.46-5,.93-7.35,1.4l-5.15-1c-10-2-18.15-3.3-18.15-3.3s8.25,1.85,17.48,4h0l1.16.26h0l2.36.55q-2,.4-3.84.81l-.4.09-1.06.24h0l-.72.16c-8.71-1.94-16.27-3.33-18.93-3.81h0l-.07.07h0c2.41.63,9.11,2.38,16.52,4.34l-1.9.49c-.79.22-1.71.49-2.71.79C24.11,42.35,19,41.21,15.47,40.46l-.31.3,12.5,3.62c-4.5,1.4-10.25,3.3-15.71,5.15l1.35.27c5.48-1.65,11.33-3.39,16.37-4.84l3.9,1.15h0l1.06.32h0l1.57.46L33.15,48l-.92.33-.25.09c-2.6.93-5.5,2-8.46,3.06l1.65.18L30,50h0l1.59-.51.28-.09h0c2.18-.71,4.28-1.38,6.21-2l6.12,1.83c-.73.28-1.44.57-2.11.85-1.48.63-3.41,1.43-5.61,2.32.88,0,1.72,0,2.6,0,2.71-1,5.19-1.81,7.25-2.49,1.18.36,2.38.76,3.32,1.06.8-.17,1.58-.35,2.37-.54l.09,0h0c-.77-.28-1.64-.66-2.49-1l-.83-.3L50,48.76c1-.31,2.32-.67,3.78-1.07l.5.14c1.18.36,2.51.88,3.38,1.13l2.55-.73.1,0h0l-2.38-.81-1.38-.45.62-.17,5.29-1.43h0l.77.28,0,0h0l2.71,1h0c.69-.18,2.43-.59,2.66-.66-.87-.28-3-.94-4-1.21l6.82-1.81,4.19,1.16-1,.23h0c-2.36.55-4.1,1.16-6,1.62l1.43-.28a32.49,32.49,0,0,1,3.48-.34l1.85,0h0c.71-.21,2.08-.53,2.08-.53l1.58.61h0a67.34,67.34,0,0,1,7.52,1c-2.45-.8-4.89-1.63-7-2.27,5.73-1.6,10.79-3,13.33-3.64ZM54.52,39.11l6.34,1.31c-2.37.5-4.75,1-7.08,1.55-2.11-.48-4.27-.95-6.42-1.41Zm-14.1,3c1.22-.28,2.78-.62,4.58-1,2.17.5,4.31,1,6.33,1.49-1.95.46-3.84.93-5.62,1.4-2.21-.55-4.43-1.08-6.6-1.57Zm-1.82,4c-1.21-.34-2.41-.65-3.61-1l-3-.78,4.28-1.19.3-.08.94.25h0l5.4,1.44c-1.51.43-2.91.86-4.17,1.28Zm8,2.35c-1.92-.61-3.91-1.2-5.9-1.77,1.68-.52,3.18-1,4.43-1.32l6,1.62C49.5,47.42,48,47.91,46.57,48.41Zm7.24-2.29C51.92,45.58,50,45.05,48,44.54c1.6-.41,3.57-.89,5.76-1.41,2.18.52,4.14,1,5.78,1.42C57.61,45.05,55.68,45.58,53.81,46.12ZM61.88,44c-1.8-.47-3.69-.94-5.64-1.4,2.21-.53,4.57-1.08,7-1.63,1.43.3,2.69.58,3.72.82l2.08.51C66.67,42.79,64.27,43.35,61.88,44Zm15.55-.58L76.19,43h0l-1.29-.36-1.14-.31,1.3-.34h0c7.87-2.07,14.66-3.83,15.93-4.16l1.9,2.48C86.59,41.54,81.56,42.52,77.43,43.37Z"/><path class="cls-20" d="M63.32,45.62l0,0-.77-.28h0l-5.29,1.43-.62.17,1.38.45,2.38.81h0c2.21-.58,5.7-1.6,5.71-1.6h0Z"/><path class="cls-20" d="M61.88,44c2.39-.6,4.79-1.16,7.13-1.7l-2.08-.51c-1-.24-2.29-.52-3.72-.82-2.4.55-4.76,1.1-7,1.63C58.19,43,60.08,43.48,61.88,44Z"/><path class="cls-20" d="M51.33,42.55c-2-.48-4.16-1-6.33-1.49-1.8.38-3.36.72-4.58,1l-1.31.32c2.17.49,4.39,1,6.6,1.57C47.49,43.48,49.38,43,51.33,42.55Z"/><path class="cls-20" d="M35,45.09c1.2.32,2.4.63,3.61,1l.13-.05c1.26-.42,2.66-.85,4.17-1.28l-5.4-1.44L36.56,43l-.3.08L34.58,45Z"/><path class="cls-20" d="M40.67,46.64c2,.57,4,1.16,5.9,1.77,1.42-.5,2.93-1,4.5-1.47l-6-1.62C43.85,45.67,42.35,46.12,40.67,46.64Z"/><path class="cls-20" d="M77.54,44.74s-1.37.32-2.08.53h0c1.07,0,2.58,0,3.64.08h0Z"/><path class="cls-20" d="M44.22,49.27,38.1,47.44c-1.93.61-4,1.28-6.21,2l-.28.09L30,50h0l-1.64,1.8-.11.11h0a72.44,72.44,0,0,0,8.23.49c2.2-.89,4.13-1.69,5.61-2.32C42.78,49.84,43.49,49.55,44.22,49.27Z"/><path class="cls-20" d="M76.19,43h0l-1.13-1h0l-1.3.34,1.14.31Z"/><path class="cls-20" d="M74.71,44.31l1-.23-4.19-1.16-6.82,1.81c1,.27,3.11.93,4,1.21,1.87-.46,3.61-1.07,6-1.62Z"/><path class="cls-20" d="M39.1,52.41a45.87,45.87,0,0,0,8.75-1.06c.52-.12,1.21-.21,1.82-.37-.94-.3-2.14-.7-3.32-1.06C44.29,50.6,41.81,51.45,39.1,52.41Z"/><path class="cls-20" d="M37.55,41.7l1.06-.24.4-.09q1.83-.4,3.84-.81L40.49,40l-1.16-.26h0l-1.76,2Z"/><path class="cls-20" d="M32,48.38l.25-.09.92-.33,3.06-1.08-1.57-.46h0l-1.06-.32h0l-2.28,2.51Z"/><path class="cls-20" d="M42.53,36.17h0c3.81.65,7.94,1.37,12,2.13,3.53-.64,7.08-1.26,10.41-1.82l.13,0,3.19-.54h0l-4.54-4.1-.09-.08-9.48-8.54L43.62,35l-.08.1Z"/><path class="cls-20" d="M60.86,40.42l-6.34-1.31-7.16,1.45c2.15.46,4.31.93,6.42,1.41C56.11,41.44,58.49,40.92,60.86,40.42Z"/><path class="cls-20" d="M40,39.06l5.15,1c2.36-.47,4.84-.94,7.35-1.4l-9.12-1.83-1.22-.24h0l-2.19,2.42Z"/><path class="cls-20" d="M71.7,39l-2.79.64-3.51.8c2.13.45,4.14.89,5.93,1.32l2.78-.61h0L71.71,39Z"/><path class="cls-20" d="M68.76,36.31h-.05L66,36.85l-.29.06-1.17.22-7.88,1.56c2.22.41,4.4.84,6.49,1.26,2-.42,4-.81,5.92-1.19l.22,0L71,38.39l.06,0Z"/><path class="cls-20" d="M54.29,47.83l-.5-.14c-1.46.4-2.74.77-3.78,1.07l-1.22.37.83.3c.85.32,1.72.7,2.49,1h0c1.73-.36,3.77-.92,5.54-1.46h0C56.77,48.7,55.46,48.19,54.29,47.83Z"/><path class="cls-21" d="M77,51.6c-7.13.62-11.62,2.35-18,4.62a141.74,141.74,0,0,0,18.31-.58c5.33-.5,12.45-1.26,17.66-1.9A40,40,0,0,0,77,51.6Z"/><path class="cls-21" d="M72.54,47.08c-8.6.82-23.37,7.71-37.64,6.94A280.13,280.13,0,0,1,7,50.64s17.83,7,34.42,6.56c5.85-.15,11.8-1.93,18.11-3.68,4.57-1.26,7.67-2.41,11.35-3.1,8.79-1.64,17.17-1.21,30,2.44C91,47.88,82.62,46.12,72.54,47.08Z"/></svg>
