<svg xmlns="http://www.w3.org/2000/svg" viewBox="0 0 1000 400" width="100%" height="100%">
  <!-- Background -->
  <rect width="1000" height="400" fill="#000000"/>
  
  <!-- Mountain Shape -->
  <g transform="translate(100, 50) scale(0.8)">
    <!-- Main white peak -->
    <path d="M500 0 L600 150 L650 120 L800 300 L950 400 L50 400 L200 300 L300 250 L400 100 Z" fill="#FFFFFF"/>
    
    <!-- Black shadows/crevasses -->
    <path d="M500 0 L550 100 L500 150 L580 250 L500 300 L600 400 L500 400 Z" fill="#000000"/>
    <path d="M650 120 L750 250 L700 300 L800 400 L650 400 Z" fill="#000000"/>
    <path d="M300 250 L400 350 L350 400 L250 400 Z" fill="#000000"/>
    <path d="M200 300 L250 350 L200 400 L150 400 Z" fill="#000000"/>
    <path d="M400 100 L450 200 L400 250 L480 350 L400 400 L350 400 Z" fill="#000000"/>
  </g>
</svg>
